<svg width="45" height="49" viewBox="0 0 45 49" fill="none" xmlns="http://www.w3.org/2000/svg">
<path id="Vector" d="M2.75567 8.2461C2.75567 9.65084 3.78499 10.7896 5.05472 10.7896H22.4356C24.493 10.7896 25.5145 13.5501 24.0479 15.1463L0.686765 40.5709C-0.229583 41.5681 -0.228822 43.2029 0.688453 44.1991L4.43807 48.2716C5.33288 49.2434 6.76655 49.2427 7.66063 48.2701L31.1711 22.6933C32.6249 21.1117 35.0821 22.2512 35.0821 24.5069V43.4137C35.0821 44.8184 36.1114 45.9572 37.3811 45.9572H42.701C43.9707 45.9572 45 44.8184 45 43.4137V2.5435C45 1.13877 43.9707 0 42.701 0H5.05472C3.78499 0 2.75567 1.13877 2.75567 2.5435V8.2461Z" fill="currentColor"/>
</svg>
